<svg width="24" height="20" viewBox="0 0 24 20" fill="none" xmlns="http://www.w3.org/2000/svg">
<path d="M11.601 0.302246L0.0501099 9.12295L1.32071 10.7926L3.20036 9.35397V19.2038H20.0017V9.35397L21.8813 10.7821L23.152 9.12295L11.601 0.302246ZM17.9015 17.1036H5.30053V7.75784L11.601 2.94846L17.9015 7.75784V17.1036ZM8.45078 11.8532C8.45078 12.4307 7.97824 12.9032 7.4007 12.9032C6.82315 12.9032 6.35061 12.4307 6.35061 11.8532C6.35061 11.2756 6.82315 10.8031 7.4007 10.8031C7.97824 10.8031 8.45078 11.2756 8.45078 11.8532ZM11.601 10.8031C12.1786 10.8031 12.6511 11.2756 12.6511 11.8532C12.6511 12.4307 12.1786 12.9032 11.601 12.9032C11.0235 12.9032 10.5509 12.4307 10.5509 11.8532C10.5509 11.2756 11.0235 10.8031 11.601 10.8031ZM14.7513 11.8532C14.7513 11.2756 15.2238 10.8031 15.8014 10.8031C16.3789 10.8031 16.8514 11.2756 16.8514 11.8532C16.8514 12.4307 16.3789 12.9032 15.8014 12.9032C15.2238 12.9032 14.7513 12.4307 14.7513 11.8532Z" fill="#B9D0F6"/>
</svg>
