<svg width="18" height="18" viewBox="0 0 18 18" fill="none" xmlns="http://www.w3.org/2000/svg">
<path d="M8.60099 2.59452C9.81908 2.59452 10.8062 3.5816 10.8062 4.7997C10.8062 6.0178 9.81908 7.00488 8.60099 7.00488C7.38289 7.00488 6.39581 6.0178 6.39581 4.7997C6.39581 3.5816 7.38289 2.59452 8.60099 2.59452ZM8.60099 12.0453C11.7197 12.0453 15.0065 13.5784 15.0065 14.2505V15.4055H2.19548V14.2505C2.19548 13.5784 5.48224 12.0453 8.60099 12.0453ZM8.60099 0.599365C6.2803 0.599365 4.40065 2.47901 4.40065 4.7997C4.40065 7.12038 6.2803 9.00003 8.60099 9.00003C10.9217 9.00003 12.8013 7.12038 12.8013 4.7997C12.8013 2.47901 10.9217 0.599365 8.60099 0.599365ZM8.60099 10.0501C5.79726 10.0501 0.200317 11.4572 0.200317 14.2505V17.4007H17.0017V14.2505C17.0017 11.4572 11.4047 10.0501 8.60099 10.0501Z" fill="#B9D0F6"/>
</svg>
