<svg width="21" height="22" viewBox="0 0 21 22" fill="none" xmlns="http://www.w3.org/2000/svg">
<path d="M18.4055 11.535C18.4475 11.199 18.479 10.863 18.479 10.506C18.479 10.1489 18.4475 9.81291 18.4055 9.47688L20.6211 7.74424C20.8206 7.58673 20.8731 7.30321 20.7471 7.07219L18.647 3.4389C18.5525 3.27089 18.3739 3.17638 18.1849 3.17638C18.1219 3.17638 18.0589 3.18688 18.0064 3.20788L15.3917 4.25797C14.8457 3.83793 14.2576 3.4914 13.6171 3.22888L13.218 0.446162C13.1865 0.194142 12.966 0.00512695 12.7035 0.00512695H8.50316C8.24064 0.00512695 8.02012 0.194142 7.98862 0.446162L7.58959 3.22888C6.94904 3.4914 6.36099 3.84843 5.81495 4.25797L3.20024 3.20788C3.13724 3.18688 3.07423 3.17638 3.01123 3.17638C2.83271 3.17638 2.6542 3.27089 2.55969 3.4389L0.459523 7.07219C0.323012 7.30321 0.386017 7.58673 0.585533 7.74424L2.80121 9.47688C2.75921 9.81291 2.7277 10.1594 2.7277 10.506C2.7277 10.8525 2.75921 11.199 2.80121 11.535L0.585533 13.2677C0.386017 13.4252 0.333513 13.7087 0.459523 13.9397L2.55969 17.573C2.6542 17.741 2.83271 17.8355 3.02173 17.8355C3.08473 17.8355 3.14774 17.825 3.20024 17.804L5.81495 16.754C6.36099 17.174 6.94904 17.5205 7.58959 17.783L7.98862 20.5658C8.02012 20.8178 8.24064 21.0068 8.50316 21.0068H12.7035C12.966 21.0068 13.1865 20.8178 13.218 20.5658L13.6171 17.783C14.2576 17.5205 14.8457 17.1635 15.3917 16.754L18.0064 17.804C18.0694 17.825 18.1324 17.8355 18.1954 17.8355C18.3739 17.8355 18.5525 17.741 18.647 17.573L20.7471 13.9397C20.8731 13.7087 20.8206 13.4252 20.6211 13.2677L18.4055 11.535ZM16.3263 9.7394C16.3683 10.0649 16.3788 10.2854 16.3788 10.506C16.3788 10.7265 16.3578 10.9575 16.3263 11.2725L16.1793 12.4591L17.1138 13.1942L18.2479 14.0762L17.5129 15.3468L16.1793 14.8113L15.0872 14.3703L14.1421 15.0843C13.6906 15.4204 13.26 15.6724 12.8295 15.8509L11.7164 16.3024L11.5484 17.489L11.3384 18.9066H9.86827L9.50074 16.3024L8.38765 15.8509C7.93612 15.6619 7.51608 15.4204 7.09605 15.1053L6.14048 14.3703L5.02739 14.8218L3.69378 15.3574L2.95872 14.0867L4.09281 13.2047L5.02739 12.4696L4.88037 11.283C4.84887 10.9575 4.82787 10.716 4.82787 10.506C4.82787 10.2959 4.84887 10.0544 4.88037 9.7394L5.02739 8.55281L4.09281 7.81775L2.95872 6.93568L3.69378 5.66508L5.02739 6.20062L6.11947 6.64166L7.06455 5.9276C7.51608 5.59157 7.94662 5.33955 8.37715 5.16104L9.49024 4.7095L9.65826 3.52291L9.86827 2.10529H11.3279L11.6954 4.7095L12.8085 5.16104C13.26 5.35005 13.6801 5.59157 14.1001 5.9066L15.0557 6.64166L16.1688 6.19012L17.5024 5.65458L18.2374 6.92518L17.1138 7.81775L16.1793 8.55281L16.3263 9.7394ZM10.6033 6.30563C8.28265 6.30563 6.403 8.18528 6.403 10.506C6.403 12.8266 8.28265 14.7063 10.6033 14.7063C12.924 14.7063 14.8037 12.8266 14.8037 10.506C14.8037 8.18528 12.924 6.30563 10.6033 6.30563ZM10.6033 12.6061C9.44824 12.6061 8.50316 11.6611 8.50316 10.506C8.50316 9.35087 9.44824 8.4058 10.6033 8.4058C11.7584 8.4058 12.7035 9.35087 12.7035 10.506C12.7035 11.6611 11.7584 12.6061 10.6033 12.6061Z" fill="#B9D0F6"/>
</svg>
