<svg width="22" height="19" viewBox="0 0 22 19" fill="none" xmlns="http://www.w3.org/2000/svg">
<path d="M19.0017 4.26711H14.8013V2.16694L12.7012 0.0667725H8.50083L6.40066 2.16694V4.26711H2.20033C1.04523 4.26711 0.100159 5.21218 0.100159 6.36727V11.6177C0.100159 12.4053 0.520192 13.0668 1.15024 13.4343V16.8681C1.15024 18.0337 2.08482 18.9683 3.25041 18.9683H17.9516C19.1172 18.9683 20.0517 18.0337 20.0517 16.8681V13.4238C20.6713 13.0563 21.1018 12.3843 21.1018 11.6177V6.36727C21.1018 5.21218 20.1568 4.26711 19.0017 4.26711ZM8.50083 2.16694H12.7012V4.26711H8.50083V2.16694ZM2.20033 6.36727H19.0017V11.6177H13.7512V8.46744H7.45074V11.6177H2.20033V6.36727ZM11.6511 12.6678H9.55091V10.5676H11.6511V12.6678ZM17.9516 16.8681H3.25041V13.7179H7.45074V14.7679H13.7512V13.7179H17.9516V16.8681Z" fill="#B9D0F6"/>
</svg>
